<svg xmlns="http://www.w3.org/2000/svg" xmlns:xlink="http://www.w3.org/1999/xlink" width="90" zoomAndPan="magnify" viewBox="0 0 67.5 67.499996" height="90" preserveAspectRatio="xMidYMid meet" version="1.0"><defs><clipPath id="1a0d2d3558"><path d="M 0 0 L 67.003906 0 L 67.003906 67.003906 L 0 67.003906 Z M 0 0 " clip-rule="nonzero"/></clipPath><clipPath id="5750c72bb3"><path d="M 0 0 L 66.902344 0 L 66.902344 66.902344 L 0 66.902344 Z M 0 0 " clip-rule="nonzero"/></clipPath><clipPath id="0d9d165bab"><path d="M 17.125 0 L 49.78125 0 C 59.238281 0 66.902344 7.667969 66.902344 17.125 L 66.902344 49.78125 C 66.902344 59.238281 59.238281 66.902344 49.78125 66.902344 L 17.125 66.902344 C 7.667969 66.902344 0 59.238281 0 49.78125 L 0 17.125 C 0 7.667969 7.667969 0 17.125 0 Z M 17.125 0 " clip-rule="nonzero"/></clipPath></defs><g clip-path="url(#1a0d2d3558)"><path fill="#ffffff" d="M 0 0 L 67.003906 0 L 67.003906 67.003906 L 0 67.003906 Z M 0 0 " fill-opacity="1" fill-rule="nonzero"/></g><g clip-path="url(#5750c72bb3)"><g clip-path="url(#0d9d165bab)"><path fill="#c10037" d="M 0 0 L 66.902344 0 L 66.902344 66.902344 L 0 66.902344 Z M 0 0 " fill-opacity="1" fill-rule="nonzero"/></g></g><path fill="#ffffff" d="M 27.214844 23.875 C 29.117188 25.257812 30.964844 24.488281 31.320312 22.164062 L 32.871094 12.089844 C 33.230469 9.765625 33.8125 9.765625 34.171875 12.089844 L 35.722656 22.164062 C 36.078125 24.488281 37.929688 25.257812 39.828125 23.875 L 48.589844 17.503906 C 50.492188 16.121094 50.917969 16.542969 49.53125 18.445312 L 43.160156 27.207031 C 41.777344 29.109375 42.546875 30.957031 44.871094 31.316406 L 54.945312 32.863281 C 57.269531 33.222656 57.269531 33.808594 54.945312 34.164062 L 44.871094 35.714844 C 42.546875 36.074219 41.777344 37.921875 43.160156 39.824219 L 49.53125 48.585938 C 50.917969 50.484375 50.492188 50.910156 48.589844 49.527344 L 39.828125 43.15625 C 37.929688 41.769531 36.078125 42.539062 35.722656 44.863281 L 34.171875 54.941406 C 33.8125 57.265625 33.230469 57.265625 32.871094 54.941406 L 31.320312 44.863281 C 30.964844 42.539062 29.113281 41.769531 27.214844 43.15625 L 18.453125 49.527344 C 16.554688 50.910156 16.199219 50.542969 17.675781 48.710938 L 24.921875 39.695312 C 26.394531 37.863281 25.695312 36.101562 23.367188 35.78125 L 11.882812 34.195312 C 9.554688 33.871094 9.550781 33.3125 11.871094 32.945312 L 22.171875 31.328125 C 24.496094 30.964844 25.265625 29.109375 23.882812 27.207031 L 17.511719 18.445312 C 16.125 16.546875 16.550781 16.121094 18.453125 17.503906 Z M 27.214844 23.875 " fill-opacity="1" fill-rule="nonzero"/></svg>