<svg xmlns="http://www.w3.org/2000/svg" xmlns:xlink="http://www.w3.org/1999/xlink" width="500" zoomAndPan="magnify" viewBox="0 0 375 374.999991" height="500" preserveAspectRatio="xMidYMid meet" version="1.0"><defs><clipPath id="ed116087de"><path d="M 153.800781 153.800781 L 221.199219 153.800781 L 221.199219 221.199219 L 153.800781 221.199219 Z M 153.800781 153.800781 " clip-rule="nonzero"/></clipPath><clipPath id="8a08e8d2f4"><path d="M 171.050781 153.800781 L 203.949219 153.800781 C 213.476562 153.800781 221.199219 161.523438 221.199219 171.050781 L 221.199219 203.949219 C 221.199219 213.476562 213.476562 221.199219 203.949219 221.199219 L 171.050781 221.199219 C 161.523438 221.199219 153.800781 213.476562 153.800781 203.949219 L 153.800781 171.050781 C 153.800781 161.523438 161.523438 153.800781 171.050781 153.800781 Z M 171.050781 153.800781 " clip-rule="nonzero"/></clipPath></defs><rect x="-37.5" width="450" fill="#ffffff" y="-37.499999" height="449.999989" fill-opacity="1"/><rect x="-37.5" width="450" fill="#ffffff" y="-37.499999" height="449.999989" fill-opacity="1"/><g clip-path="url(#ed116087de)"><g clip-path="url(#8a08e8d2f4)"><path fill="#c10037" d="M 153.800781 153.800781 L 221.199219 153.800781 L 221.199219 221.199219 L 153.800781 221.199219 Z M 153.800781 153.800781 " fill-opacity="1" fill-rule="nonzero"/></g></g><path fill="#ffffff" d="M 181.214844 177.851562 C 183.132812 179.246094 184.992188 178.46875 185.351562 176.128906 L 186.914062 165.980469 C 187.277344 163.636719 187.863281 163.636719 188.226562 165.980469 L 189.785156 176.128906 C 190.148438 178.46875 192.007812 179.246094 193.925781 177.851562 L 202.75 171.433594 C 204.667969 170.039062 205.09375 170.46875 203.699219 172.382812 L 197.28125 181.210938 C 195.886719 183.125 196.664062 184.988281 199.003906 185.347656 L 209.152344 186.910156 C 211.496094 187.269531 211.496094 187.859375 209.152344 188.21875 L 199.003906 189.78125 C 196.664062 190.140625 195.886719 192.003906 197.28125 193.917969 L 203.699219 202.746094 C 205.09375 204.660156 204.667969 205.085938 202.75 203.691406 L 193.925781 197.273438 C 192.007812 195.878906 190.148438 196.65625 189.785156 198.996094 L 188.226562 209.148438 C 187.863281 211.488281 187.277344 211.488281 186.914062 209.148438 L 185.351562 198.996094 C 184.992188 196.65625 183.132812 195.878906 181.214844 197.273438 L 172.390625 203.691406 C 170.476562 205.085938 170.121094 204.71875 171.605469 202.871094 L 178.90625 193.792969 C 180.390625 191.945312 179.683594 190.167969 177.339844 189.847656 L 165.773438 188.25 C 163.425781 187.921875 163.421875 187.359375 165.761719 186.992188 L 176.136719 185.359375 C 178.476562 184.992188 179.253906 183.125 177.859375 181.210938 L 171.441406 172.382812 C 170.046875 170.46875 170.472656 170.039062 172.390625 171.433594 Z M 181.214844 177.851562 " fill-opacity="1" fill-rule="nonzero"/></svg>